<svg xmlns="http://www.w3.org/2000/svg" viewBox="0 0 120 120" role="img" aria-label="Dimasi Automobile">
  <defs>
    <linearGradient id="fvGrad" x1="0" y1="0" x2="1" y2="1">
      <stop offset="0" stop-color="#ff8a00"/>
      <stop offset=".55" stop-color="#ff4d00"/>
      <stop offset="1" stop-color="#ff2d00"/>
    </linearGradient>
  </defs>
  <rect x="2" y="2" width="116" height="116" rx="28" fill="#14161d"/>
  <rect x="2" y="2" width="116" height="116" rx="28" fill="none" stroke="url(#fvGrad)" stroke-width="6"/>
  <!-- Bold car silhouette -->
  <path d="M22,72 C22,65 26,61 33,60 L43,60
           C48,49 55,43 66,43 L76,43
           C86,43 91,52 95,61 L99,63
           C103,64 103,69 101,72 L90,72
           A11 11 0 0 0 64,72 L52,72
           A11 11 0 0 0 30,72 Z" fill="url(#fvGrad)"/>
  <circle cx="41" cy="72" r="11" fill="url(#fvGrad)"/>
  <circle cx="41" cy="72" r="4.6" fill="#14161d"/>
  <circle cx="77" cy="72" r="11" fill="url(#fvGrad)"/>
  <circle cx="77" cy="72" r="4.6" fill="#14161d"/>
  <path d="M49,59 C53,50 59,45.5 66,45.5 L75,45.5 C82,45.5 86,51 89,59 Z" fill="#14161d"/>
</svg>
